<?xml version="1.0" encoding="utf-8"?>
<!-- Generator: Adobe Illustrator 21.0.2, SVG Export Plug-In . SVG Version: 6.00 Build 0)  -->
<svg version="1.1" xmlns="http://www.w3.org/2000/svg" xmlns:xlink="http://www.w3.org/1999/xlink" x="0px" y="0px"
	 viewBox="0 0 285.6 285.6" style="enable-background:new 0 0 285.6 285.6;" xml:space="preserve">
<style type="text/css">
	.st0{display:none;}
	.st1{display:inline;}
	.st2{opacity:0.2;fill:none;stroke:#EC008C;stroke-width:2;stroke-linecap:round;stroke-linejoin:round;stroke-miterlimit:10;}
	.st3{opacity:0.2;fill:none;stroke:#FFF200;stroke-width:2;stroke-linecap:round;stroke-linejoin:round;stroke-miterlimit:10;}
	.st4{opacity:0.2;fill:none;stroke:#00AEEF;stroke-width:2;stroke-linecap:round;stroke-linejoin:round;stroke-miterlimit:10;}
	.st5{fill:#241F21;}
	.st6{fill:url(#SVGID_1_);}
	.st7{fill:url(#SVGID_2_);}
</style>
<g id="Template_Layer" class="st0">
	<g class="st1">
		<polygon class="st2" points="248.2,208 248.2,80.1 136.3,16.3 25.6,80.2 25.6,208 136.3,271.9 		"/>
		<line class="st3" x1="94.7" y1="217.1" x2="179" y2="71.1"/>
		<line class="st3" x1="179" y1="217.1" x2="94.7" y2="71.1"/>
		<line class="st3" x1="63.8" y1="101.9" x2="209.9" y2="186.3"/>
		<line class="st3" x1="63.8" y1="186.3" x2="209.9" y2="101.9"/>
		<line class="st4" x1="70.4" y1="210.6" x2="203.4" y2="77.6"/>
		<line class="st4" x1="203.4" y1="210.6" x2="70.4" y2="77.6"/>
		<line class="st2" x1="42.8" y1="144.1" x2="230.9" y2="144.1"/>
		<line class="st2" x1="136.9" y1="238.2" x2="136.9" y2="50.1"/>
	</g>
</g>
<g id="Strokes_TO_EDIT" class="st0">
	<g class="st1">
		<path class="st5" d="M174.1,137.5l-62.8-36.5c-1.4-0.8-3.3-0.3-4.1,1.1c-0.8,1.4-0.3,3.3,1.1,4.1l62.8,36.5
			c1.4,0.8,1.5,2.1,1.5,2.6c0,0.5-0.2,1.8-1.5,2.6l-53.8,30.5c-1.4,0.8-2.5,0.2-3,0c-0.4-0.3-1.5-1-1.5-2.6l0-66.3
			c0-1.9-1-3.6-2.6-4.6l-3-1.7c-0.1-0.1-0.4,0-0.4,0.2v72.5c0,3.2,1.7,6.1,4.5,7.8c1.4,0.8,3,1.2,4.5,1.2c1.5,0,3.1-0.4,4.4-1.2
			l53.8-30.5c2.8-1.6,4.5-4.5,4.6-7.8C178.6,142.1,176.9,139.2,174.1,137.5z"/>
		<path class="st5" d="M127.6,159.3v-27.8c0-1.7-1.3-3-3-3c-1.7,0-3,1.3-3,3v27.8c0,1.7,1.3,3,3,3
			C126.2,162.3,127.6,161,127.6,159.3z"/>
		<path class="st5" d="M136.9,61.1c-45.8,0-83,37.2-83,83s37.2,83,83,83c45.8,0,83-37.2,83-83S182.6,61.1,136.9,61.1z M136.9,221.1
			c-42.5,0-77-34.5-77-77s34.5-77,77-77s77,34.5,77,77S179.3,221.1,136.9,221.1z"/>
	</g>
</g>
<g id="Fill_FINAL_ICONS">
	<g>
		<linearGradient id="SVGID_1_" gradientUnits="userSpaceOnUse" x1="150.0981" y1="63.1859" x2="150.0981" y2="222.3761">
			<stop  offset="0" style="stop-color:#FF9900"/>
			<stop  offset="1" style="stop-color:#FB6361"/>
		</linearGradient>
		<path class="st6" d="M209.5,132.9L90.8,64c-2.7-1.6-6.2-0.7-7.8,2.1c-0.4,0.7-0.6,1.4-0.7,2.2c0,0,0,0.1,0,0.1v136.5
			c0,5.7,2.6,11.2,7.2,14.4c3,2.1,6.4,3.1,9.8,3.1c2.9,0,5.8-0.7,8.4-2.2l101.2-57.4c5-2.8,8.6-7.9,9.1-13.6
			C218.4,142.4,215.2,136.2,209.5,132.9z M203.7,152.5l-101.7,57.7c-2.6,1.5-4.8,0.5-5.7,0c-0.8-0.5-2.8-2-2.8-4.9l0-125.4
			c0-0.4,0-0.8-0.1-1.3l110.3,64c2.6,1.5,2.8,3.9,2.8,4.9C206.6,148.6,206.3,151.1,203.7,152.5z"/>
		<linearGradient id="SVGID_2_" gradientUnits="userSpaceOnUse" x1="116.2654" y1="115.7578" x2="116.2654" y2="179.6708">
			<stop  offset="0" style="stop-color:#FF9900"/>
			<stop  offset="1" style="stop-color:#FB6361"/>
		</linearGradient>
		<path class="st7" d="M110.6,121.6c0,9.9,0,42.4,0,52.3c0,2.5,1.5,4.8,3.8,5.5c3.9,1.2,7.5-1.7,7.5-5.4v-52.6
			c0-3.7-3.6-6.6-7.5-5.4C112.1,116.8,110.6,119.1,110.6,121.6z"/>
	</g>
</g>
</svg>
